<svg xmlns="http://www.w3.org/2000/svg" xmlns:xlink="http://www.w3.org/1999/xlink" version="1.1" width="256" height="256" viewBox="0 0 256 256" xml:space="preserve">
<desc>Created with Fabric.js 1.7.22</desc>
<defs>
</defs>
<g transform="translate(128 128) scale(0.59 0.59)" style="">
	<g style="stroke: none; stroke-width: 0; stroke-dasharray: none; stroke-linecap: butt; stroke-linejoin: miter; stroke-miterlimit: 10; fill: none; fill-rule: nonzero; opacity: 1;" transform="translate(-214.39158973709766 -123.77904204670519) rotate(-15) scale(3.89 3.89)" >
	<polygon points="88.6,16.72 60.68,24.2 66.8,30.32 54.39,42.73 39.07,27.41 1.4,65.08 9.6,73.28 39.07,43.81 54.39,59.13 75,38.52 81.12,44.64 " style="stroke: none; stroke-width: 1; stroke-dasharray: none; stroke-linecap: butt; stroke-linejoin: miter; stroke-miterlimit: 10; fill: rgb(255,255,255); fill-rule: nonzero; opacity: 1;" transform="  matrix(1 0 0 1 0 0) "/>
	<path d="M 9.6 74.681 L 0 65.082 l 39.074 -39.074 l 15.319 15.319 L 65.4 30.321 l -6.633 -6.633 L 90 15.319 l -8.366 31.236 L 75 39.921 L 54.393 60.528 L 39.074 45.209 L 9.6 74.681 z M 2.802 65.082 L 9.6 71.879 l 29.473 -29.472 l 15.319 15.319 L 75 37.119 l 5.608 5.607 l 6.59 -24.605 l -24.603 6.592 l 5.608 5.608 L 54.393 44.13 L 39.074 28.811 L 2.802 65.082 z" style="stroke: none; stroke-width: 1; stroke-dasharray: none; stroke-linecap: butt; stroke-linejoin: miter; stroke-miterlimit: 10; fill: rgb(0,0,0); fill-rule: nonzero; opacity: 1;" transform=" matrix(1 0 0 1 0 0) " stroke-linecap="round" />
</g>
</g>
</svg>